<svg xmlns="http://www.w3.org/2000/svg" viewBox="0 0 820 220" role="img" aria-label="Two teaching pictures. A: One small clay lamp. B: Nine lights on one stand."><rect width="820" height="220" fill="#fff"></rect><g transform="translate(90,5)"><path d="M40 85 Q100 145 160 85Z" fill="none" stroke="#172033" stroke-width="5" stroke-linecap="round" stroke-linejoin="round" ></path><path d="M100 85 Q85 60 100 30 Q115 60 100 85"  stroke="#172033" stroke-width="5" stroke-linecap="round" stroke-linejoin="round" fill="#D8A63B"></path></g><g transform="translate(535,5)"><path d="M30 100 V60" fill="none" stroke="#172033" stroke-width="5" stroke-linecap="round" stroke-linejoin="round" ></path><circle cx="30" cy="50" r="5" fill="#D8A63B" stroke="#172033" stroke-width="5"></circle><path d="M47 100 V60" fill="none" stroke="#172033" stroke-width="5" stroke-linecap="round" stroke-linejoin="round" ></path><circle cx="47" cy="50" r="5" fill="#D8A63B" stroke="#172033" stroke-width="5"></circle><path d="M64 100 V60" fill="none" stroke="#172033" stroke-width="5" stroke-linecap="round" stroke-linejoin="round" ></path><circle cx="64" cy="50" r="5" fill="#D8A63B" stroke="#172033" stroke-width="5"></circle><path d="M81 100 V60" fill="none" stroke="#172033" stroke-width="5" stroke-linecap="round" stroke-linejoin="round" ></path><circle cx="81" cy="50" r="5" fill="#D8A63B" stroke="#172033" stroke-width="5"></circle><path d="M98 100 V45" fill="none" stroke="#172033" stroke-width="5" stroke-linecap="round" stroke-linejoin="round" ></path><circle cx="98" cy="35" r="5" fill="#D8A63B" stroke="#172033" stroke-width="5"></circle><path d="M115 100 V60" fill="none" stroke="#172033" stroke-width="5" stroke-linecap="round" stroke-linejoin="round" ></path><circle cx="115" cy="50" r="5" fill="#D8A63B" stroke="#172033" stroke-width="5"></circle><path d="M132 100 V60" fill="none" stroke="#172033" stroke-width="5" stroke-linecap="round" stroke-linejoin="round" ></path><circle cx="132" cy="50" r="5" fill="#D8A63B" stroke="#172033" stroke-width="5"></circle><path d="M149 100 V60" fill="none" stroke="#172033" stroke-width="5" stroke-linecap="round" stroke-linejoin="round" ></path><circle cx="149" cy="50" r="5" fill="#D8A63B" stroke="#172033" stroke-width="5"></circle><path d="M166 100 V60" fill="none" stroke="#172033" stroke-width="5" stroke-linecap="round" stroke-linejoin="round" ></path><circle cx="166" cy="50" r="5" fill="#D8A63B" stroke="#172033" stroke-width="5"></circle><path d="M25 100 H171 M98 100 V130 M70 130 H126" fill="none" stroke="#172033" stroke-width="5" stroke-linecap="round" stroke-linejoin="round" ></path></g><g font-family="Arial" font-size="23" fill="#172033" text-anchor="middle"><text x="190" y="198">A · One small clay lamp</text><text x="635" y="198">B · Nine lights on one stand</text></g></svg>