<svg xmlns="http://www.w3.org/2000/svg" role="img" aria-labelledby="W5L2-visual-title W5L2-visual-desc" viewBox="0 0 640 360" width="640" height="360" style="font-family:Arial, sans-serif">
      <title id="W5L2-visual-title">Scientific visual for this lesson</title>
      <desc id="W5L2-visual-desc">A local vector model used to support observation and reasoning. Labels and explanations are supplied in the lesson.</desc>
      <defs><marker id="arrow-W5L2-visual" orient="auto" markerWidth="10" markerHeight="10" refX="8" refY="3"><path d="M0,0 L0,6 L9,3 z" fill="#f1c764"/></marker></defs>
      <g style="--arrow-id:url(#arrow-W5L2-visual)">
      <g transform="translate(70 60)"><rect x="0" y="0" width="90" height="220" rx="15" fill="#e9f3fb" stroke="#8fa2bb" stroke-width="4"/><rect x="15" y="85" width="60" height="110" rx="8" fill="#d8bd72"/><text x="13" y="30" fill="#263554" font-size="16">0.0</text></g>
      <g transform="translate(205 60)"><rect x="0" y="0" width="90" height="220" rx="15" fill="#e9f3fb" stroke="#8fa2bb" stroke-width="4"/><rect x="15" y="90" width="60" height="105" rx="8" fill="#d8bd72"/><text x="13" y="30" fill="#263554" font-size="16">0.4</text></g>
      <g transform="translate(340 60)"><rect x="0" y="0" width="90" height="220" rx="15" fill="#e9f3fb" stroke="#8fa2bb" stroke-width="4"/><rect x="15" y="100" width="60" height="95" rx="8" fill="#d8bd72"/><text x="13" y="30" fill="#263554" font-size="16">0.8</text></g>
      <g transform="translate(475 60)"><rect x="0" y="0" width="90" height="220" rx="15" fill="#e9f3fb" stroke="#8fa2bb" stroke-width="4"/><rect x="15" y="110" width="60" height="85" rx="8" fill="#d8bd72"/><text x="13" y="30" fill="#263554" font-size="16">1.0</text></g>
      <text x="120" y="325" fill="#fff" font-size="17">measure &#8594; percentage change &#8594; graph &#8594; evaluate</text></g>
    </svg>